<svg xmlns="http://www.w3.org/2000/svg" viewBox="0 0 100 100">
  <!-- Background -->
  <rect width="100" height="100" rx="20" fill="#111827"/>

  <!-- Dragon Ball Z aura (gold flame) -->
  <path d="M50 10 C45 25, 55 25, 50 40 
           C55 30, 65 30, 60 50 
           C70 40, 75 50, 65 65 
           C75 60, 80 75, 65 80 
           C70 90, 50 85, 50 95 
           C50 85, 30 90, 35 80 
           C20 75, 25 60, 35 65 
           C25 50, 30 40, 40 50 
           C35 30, 45 30, 50 40 
           Z"
        fill="#facc15" opacity="0.85"/>

  <!-- Speech bubble -->
  <path d="M25 60 Q25 45, 40 45 H70 Q80 45, 80 55 Q80 65, 70 65 H45 L35 75 L37 65 Q25 65, 25 60 Z"
        fill="#ffffff" opacity="0.95"/>

  <!-- GK initials inside chat bubble -->
  <text x="52" y="60" font-size="16" fill="#111827" font-family="Arial, sans-serif" font-weight="bold" text-anchor="middle">
    GK
  </text>
</svg>
