<svg xmlns="http://www.w3.org/2000/svg" width="128" height="128" viewBox="0 0 128 128">
  <!-- Transparent background -->
  <rect width="128" height="128" fill="none" />

  <!-- Chat bubble shape -->
  <path fill="none" stroke="#000000" stroke-width="6" d="
    M30 30 
    H98 
    A16 16 0 0 1 114 46 
    V82 
    A16 16 0 0 1 98 98 
    H54 
    L38 114 
    V98 
    H30 
    A16 16 0 0 1 14 82 
    V46 
    A16 16 0 0 1 30 30 
    Z"
  />

  <!-- Hair spikes (scaled and shifted) -->
  <g transform="translate(8,8) scale(0.85)">
    <path fill="#000000" d="
      M40 40 
      L35 25 
      L45 20 
      L38 10 
      L50 15 
      L58 5 
      L62 20 
      L70 10 
      L75 30 
      L85 20 
      L90 40 
      L85 50 
      L75 45 
      L65 60 
      L55 50 
      Z"
    />

    <!-- Face outline -->
    <path fill="#000000" d="
      M50 60
      Q60 90 70 60
      Q80 90 90 60
      L90 100
      L50 100
      Z"
    />

    <!-- Eyes (thicker) -->
    <ellipse cx="60" cy="70" rx="6" ry="4" fill="#ffffff" />
    <ellipse cx="80" cy="70" rx="6" ry="4" fill="#ffffff" />

    <!-- Pupils -->
    <circle cx="62" cy="70" r="2.5" fill="#000000" />
    <circle cx="78" cy="70" r="2.5" fill="#000000" />
  </g>
</svg>
